<?xml version="1.0" standalone="no"?>
<!DOCTYPE svg PUBLIC "-//W3C//DTD SVG 1.1//EN" "http://www.w3.org/Graphics/SVG/1.1/DTD/svg11.dtd" >
<svg xmlns="http://www.w3.org/2000/svg" xmlns:xlink="http://www.w3.org/1999/xlink" version="1.1">
<metadata>
Created by FontForge 20170731 at Sun Jun  3 00:34:01 2001
 By Aleksey,,,
Copyright (c) Phanlop Thongsuk, 1999-2001. All rights reserved.
</metadata>
<defs>
<font id="KittithadaRoman55P" horiz-adv-x="0" >
  <font-face 
    font-family="Kittithada Roman 55 P"
    font-weight="400"
    font-stretch="normal"
    units-per-em="1000"
    panose-1="2 2 6 3 5 4 5 2 3 4"
    ascent="800"
    descent="-200"
    x-height="341"
    cap-height="471"
    bbox="-426 -296 760 781"
    underline-thickness="15"
    underline-position="-65"
    unicode-range="U+0020-F71D"
  />
<missing-glyph horiz-adv-x="781" 
d="M49 0h683v781h-683v-781zM684 49h-586v683h586v-683z" />
    <glyph glyph-name=".notdef" horiz-adv-x="781" 
d="M49 0h683v781h-683v-781zM684 49h-586v683h586v-683z" />
    <glyph glyph-name="glyph1" 
 />
    <glyph glyph-name="nonmarkingreturn" horiz-adv-x="250" 
 />
    <glyph glyph-name="space" unicode=" " horiz-adv-x="250" 
 />
    <glyph glyph-name="space" unicode="&#xa0;" horiz-adv-x="250" 
 />
    <glyph glyph-name="exclam" unicode="!" horiz-adv-x="171" 
d="M117 326l-17 -205h-29l-17 205v145h63v-145zM122 0h-73v73h73v-73z" />
    <glyph glyph-name="quotedbl" unicode="&#x22;" horiz-adv-x="281" 
d="M209 301h-45v170h45v-170zM117 301h-45v170h45v-170z" />
    <glyph glyph-name="numbersign" unicode="#" horiz-adv-x="367" 
d="M345 280h-65l-14 -99h60v-45h-67l-19 -136h-45l19 136h-82l-19 -136h-46l19 136h-64v45h71l14 99h-67v45h73l19 135h46l-20 -135h82l19 135h46l-19 -135h59v-45zM234 280h-82l-13 -99h81z" />
    <glyph glyph-name="dollar" unicode="$" horiz-adv-x="367" 
d="M346 132q0 -66 -40.5 -102.5t-103.5 -36.5v-54h-36v54q-66 6 -105 44t-45 107h57q0 -43 25.5 -69.5t67.5 -32.5v174q-38 10 -63.5 21t-39.5 22q-33 28 -33 85q0 60 39 99t97 39v44h36v-44q104 -13 130 -131h-56q-14 65 -74 77v-163l40 -10q37 -10 64 -34q40 -36 40 -89z
M166 275v155q-34 -4 -55 -24t-21 -56q0 -32 21 -50q8 -7 21.5 -13.5t33.5 -11.5zM287 126q0 34 -24 54q-18 14 -61 27v-165q39 0 62 21t23 63z" />
    <glyph glyph-name="percent" unicode="%" horiz-adv-x="660" 
d="M599 125q0 -56 -24 -92q-28 -37 -81 -37q-57 0 -82 33.5t-25 93.5q0 62 22 93q27 41 85 41q57 0 83 -39q22 -31 22 -93zM535 477l-354 -488h-57l355 488h56zM273 336q0 -56 -24 -92q-29 -41 -81 -41q-55 0 -83 39q-24 34 -24 92q0 63 22 94q27 40 85 40q57 0 83 -39
q22 -31 22 -93zM550 125q0 39 -9 62q-14 33 -47 33q-17 0 -28 -8t-17.5 -21t-9.5 -30.5t-3 -36.5q0 -40 9 -62q13 -34 47 -34t48 33q10 19 10 64zM224 336q0 39 -9 62q-13 34 -47 34q-33 0 -45.5 -29t-12.5 -68t9 -61q13 -34 47 -34t48 32q10 19 10 64z" />
    <glyph glyph-name="ampersand" unicode="&#x26;" horiz-adv-x="416" 
d="M426 0h-74l-50 59q-20 -32 -56.5 -47.5t-76.5 -15.5q-84 0 -121 46q-26 35 -26 79q0 49 32 87q13 13 32.5 27t45.5 28l-18 26l-18 26q-16 28 -16 59q0 42 27.5 69.5t78.5 27.5q48 0 81 -25t33 -71q0 -38 -27 -72q-22 -28 -61 -50l85 -104q15 37 15 73h54
q-2 -20 -4.5 -35.5t-5.5 -25.5q-2 -10 -8 -23.5l-14 -31.5zM244 372q0 21 -14.5 35.5t-39.5 14.5q-22 0 -38 -12.5t-16 -37.5q0 -14 8 -30t37 -52q30 17 42 32q21 22 21 50zM271 98l-108 130q-25 -14 -42 -27t-25 -26q-15 -23 -15 -54q0 -34 26.5 -56.5t63.5 -22.5
q31 0 57 15t43 41z" />
    <glyph glyph-name="quotesingle" unicode="'" horiz-adv-x="183" 
d="M114 301h-45v170h45v-170z" />
    <glyph glyph-name="parenleft" unicode="(" horiz-adv-x="171" 
d="M178 -127h-43q-26 39 -44.5 75.5t-31.5 68.5q-28 74 -28 161q0 81 26.5 159t77.5 145h43q-45 -70 -66.5 -146.5t-21.5 -157.5q0 -85 20 -157t68 -148z" />
    <glyph glyph-name="parenright" unicode=")" horiz-adv-x="171" 
d="M140 174q0 -79 -26.5 -156.5t-77.5 -144.5h-39q45 72 64.5 146t19.5 155q0 85 -19.5 158.5t-64.5 149.5h39q51 -80 77.5 -153t26.5 -155z" />
    <glyph glyph-name="asterisk" unicode="*" horiz-adv-x="232" 
d="M216 391l-71 -25l43 -60l-27 -20l-46 63l-42 -63l-30 20l43 60l-70 25l12 32l70 -26v74h35v-74l70 26z" />
    <glyph glyph-name="plus" unicode="+" horiz-adv-x="396" 
d="M364 145h-144v-145h-44v145h-144v44h144v145h44v-145h144v-44z" />
    <glyph glyph-name="comma" unicode="," horiz-adv-x="183" 
d="M128 7q0 -35 -17.5 -62t-55.5 -38v33q21 7 30 25.5t9 34.5h-39v73h73v-66z" />
    <glyph glyph-name="hyphen" unicode="-" horiz-adv-x="257" 
d="M224 157h-191v53h191v-53z" />
    <glyph glyph-name="period" unicode="." horiz-adv-x="183" 
d="M128 0h-73v73h73v-73z" />
    <glyph glyph-name="slash" unicode="/" horiz-adv-x="220" 
d="M232 482l-196 -489h-44l191 489h49z" />
    <glyph glyph-name="zero" unicode="0" horiz-adv-x="367" 
d="M339 230q0 -113 -22 -157q-36 -77 -134 -77t-132 76q-23 58 -23 158q0 113 22 157q36 81 133 81q98 0 133 -80q23 -58 23 -158zM280 230q0 82 -12 120q-23 68 -85 68t-83 -67q-13 -35 -13 -121q0 -83 12 -120q21 -68 84 -68q62 0 84 67q13 35 13 121z" />
    <glyph glyph-name="one" unicode="1" horiz-adv-x="367" 
d="M235 0h-56v335h-122v45q55 0 87 17q40 21 48 71h43v-468z" />
    <glyph glyph-name="two" unicode="2" horiz-adv-x="367" 
d="M326 333q0 -42 -20 -77q-24 -41 -96 -84q-35 -22 -55.5 -35t-25.5 -17q-41 -32 -48 -71h240v-49h-305q0 76 40 122q11 13 34 30t57 39q26 16 44 28.5t28 20.5q48 40 48 94q0 38 -26 61t-65 23q-45 0 -70 -37q-21 -32 -21 -79h-56q0 75 39 120.5t112 45.5q63 0 104.5 -36
t41.5 -99z" />
    <glyph glyph-name="three" unicode="3" horiz-adv-x="367" 
d="M337 135q0 -68 -48 -107q-44 -32 -113 -32q-72 0 -114 38t-42 111h56q0 -46 26 -74.5t74 -28.5q43 0 72 24t29 66t-28 66t-71 24l-34 -2v47h24q38 0 63.5 19.5t25.5 56.5q0 36 -22.5 55.5t-60.5 19.5q-45 0 -66.5 -28t-21.5 -73h-56q0 69 37.5 110t106.5 41
q64 0 103.5 -31t39.5 -94q0 -29 -18.5 -55t-46.5 -39q42 -9 63.5 -39t21.5 -75z" />
    <glyph glyph-name="four" unicode="4" horiz-adv-x="367" 
d="M340 110h-63v-110h-53v110h-206v54l214 304h45v-309h63v-49zM224 159v229l-157 -229h157z" />
    <glyph glyph-name="five" unicode="5" horiz-adv-x="367" 
d="M336 148q0 -64 -41 -108q-46 -44 -123 -44q-32 0 -59 8t-47 24.5t-31.5 41t-11.5 56.5h56q0 -36 28 -60t71 -24q42 0 70.5 28t28.5 82q0 48 -29 77.5t-77 29.5q-27 0 -48 -11.5t-39 -33.5l-48 3l43 243h231v-49h-189l-25 -135q16 16 39.5 24t49.5 8q67 0 109 -40.5
t42 -119.5z" />
    <glyph glyph-name="six" unicode="6" horiz-adv-x="367" 
d="M343 149q0 -61 -34 -104q-42 -49 -123 -49q-93 0 -132 71q-29 56 -29 150q0 109 36 174q44 77 136 77q60 0 96 -31.5t36 -88.5h-56q-4 33 -24.5 51.5t-53.5 18.5q-65 0 -93 -61q-21 -45 -21 -116q40 60 118 60q67 0 105.5 -42.5t38.5 -109.5zM283 145q0 46 -24 76t-70 30
t-71.5 -29.5t-25.5 -75.5q0 -45 25.5 -74.5t71.5 -29.5q43 0 68.5 30t25.5 73z" />
    <glyph glyph-name="seven" unicode="7" horiz-adv-x="367" 
d="M336 412q-74 -74 -125 -186q-55 -114 -55 -226h-62q0 115 55 224q23 48 55.5 93.5t74.5 89.5h-246v53h303v-48z" />
    <glyph glyph-name="eight" unicode="8" horiz-adv-x="367" 
d="M341 135q0 -69 -43.5 -104t-112.5 -35q-73 0 -113 31q-46 37 -46 108q0 42 21 72t61 44q-29 12 -47 38.5t-18 58.5q0 28 10.5 50.5t29 38t43.5 23.5t54 8q72 0 109 -37q33 -33 33 -83q0 -30 -18 -56.5t-47 -40.5q84 -26 84 -116zM263 346q0 35 -21.5 53.5t-57.5 18.5
t-59 -18.5t-23 -53.5q0 -36 23.5 -55.5t59.5 -19.5q34 0 56 20t22 55zM281 133q0 37 -28 63t-68 26q-43 0 -71 -24t-28 -66t27 -66t72 -24q42 0 69 26t27 65z" />
    <glyph glyph-name="nine" unicode="9" horiz-adv-x="367" 
d="M337 244q0 -129 -39 -188.5t-124 -59.5q-60 0 -98 28.5t-44 88.5h56q3 -34 26.5 -52.5t59.5 -18.5q106 0 106 180q-18 -30 -46.5 -46.5t-63.5 -16.5q-72 0 -110 42t-38 114q0 34 11 62t31.5 48.5t48.5 31.5t63 11q74 0 113 -45q48 -56 48 -179zM270 312q0 45 -24 74
q-27 32 -72 32q-48 0 -70 -31t-22 -79q0 -42 25 -70.5t67 -28.5q43 0 69.5 29t26.5 74z" />
    <glyph glyph-name="colon" unicode=":" horiz-adv-x="183" 
d="M128 268h-73v73h73v-73zM128 0h-73v73h73v-73z" />
    <glyph glyph-name="semicolon" unicode=";" horiz-adv-x="183" 
d="M128 268h-73v73h73v-73zM128 7q0 -35 -17.5 -62t-55.5 -38v33q21 7 30 25.5t9 34.5h-39v73h73v-66z" />
    <glyph glyph-name="less" unicode="&#x3c;" horiz-adv-x="396" 
d="M366 -1l-336 148v40l336 152v-45l-281 -127l281 -127v-41z" />
    <glyph glyph-name="equal" unicode="=" horiz-adv-x="396" 
d="M364 211h-332v45h332v-45zM364 78h-332v45h332v-45z" />
    <glyph glyph-name="greater" unicode="&#x3e;" horiz-adv-x="396" 
d="M366 147l-336 -148v41l281 127l-281 127v45l336 -152v-40z" />
    <glyph glyph-name="question" unicode="?" horiz-adv-x="367" 
d="M323 350q0 -37 -17 -66q-5 -10 -15.5 -21.5t-24.5 -25.5q-13 -12 -22.5 -22.5t-16.5 -18.5q-18 -26 -18 -55v-26h-56v31q0 33 20 65q12 18 39 45q14 14 23 24t13 17q16 25 16 59q0 35 -22 56t-58 21q-45 0 -68.5 -30.5t-23.5 -78.5h-56q0 70 39.5 114t108.5 44
q63 0 101 -34.5t38 -97.5zM217 0h-73v73h73v-73z" />
    <glyph glyph-name="at" unicode="@" horiz-adv-x="528" 
d="M497 279q0 -80 -53 -139q-48 -52 -101 -52q-19 0 -31 10.5t-12 32.5q-18 -19 -39 -32t-45 -13q-42 0 -68 30t-26 75q0 75 43 130q43 57 112 57q25 0 44 -12.5t30 -41.5l15 42h42l-56 -188l-5 -20t-2 -13q0 -21 16 -21q30 0 60 50q31 49 31 102q0 76 -53 123t-126 47
q-83 0 -142 -62q-58 -61 -58 -150q0 -87 60 -148t144 -61q46 0 90.5 22t72.5 58h42q-31 -54 -87 -83t-120 -29q-102 0 -176 68q-71 71 -71 177q0 102 72 173q74 71 173 71q94 0 158 -58q66 -57 66 -145zM331 272q0 24 -16.5 42.5t-37.5 18.5q-44 0 -75 -45q-30 -45 -30 -93
q0 -28 15 -46t41 -18q40 0 72 48q31 46 31 93z" />
    <glyph glyph-name="A" unicode="A" horiz-adv-x="428" 
d="M433 0h-69l-52 142h-199l-53 -142h-61l181 471h69zM292 195l-78 219l-81 -219h159z" />
    <glyph glyph-name="B" unicode="B" horiz-adv-x="452" 
d="M422 135q0 -56 -36 -93q-41 -42 -107 -42h-228v471h171q45 0 75.5 -2.5t52.5 -16.5q23 -13 38 -37.5t15 -58.5q0 -37 -19 -64.5t-51 -41.5q43 -10 66 -40t23 -75zM340 344q0 44 -29 61q-22 13 -71 13h-126v-149h126q100 0 100 75zM360 137q0 45 -28.5 62t-74.5 17h-143
v-163h157q42 0 65.5 23t23.5 61z" />
    <glyph glyph-name="C" unicode="C" horiz-adv-x="477" 
d="M450 178q-9 -91 -61 -138t-143 -47q-106 0 -164 67q-54 66 -54 174q0 107 57 175q61 73 166 73q78 0 131 -39t63 -114h-62q-10 49 -45 75t-87 26q-80 0 -122 -58q-38 -53 -38 -133q0 -86 38 -139q42 -58 122 -58q63 0 99.5 38t36.5 98h63z" />
    <glyph glyph-name="D" unicode="D" horiz-adv-x="465" 
d="M440 247q0 -126 -54.5 -186.5t-172.5 -60.5h-162v471h162q112 0 169.5 -54.5t57.5 -169.5zM377 238q0 88 -35 132q-38 48 -122 48h-106v-365h104q79 0 119 48.5t40 136.5z" />
    <glyph glyph-name="E" unicode="E" horiz-adv-x="403" 
d="M379 0h-328v471h326v-53h-263v-149h245v-53h-245v-163h265v-53z" />
    <glyph glyph-name="F" unicode="F" horiz-adv-x="379" 
d="M361 418h-247v-149h217v-53h-217v-216h-63v471h310v-53z" />
    <glyph glyph-name="G" unicode="G" horiz-adv-x="501" 
d="M460 0h-40l-16 59q-26 -36 -65.5 -51t-85.5 -15q-103 0 -164 66q-61 70 -61 167q0 109 56 180q61 76 169 76q82 0 133 -36q57 -41 69 -120h-62q-9 51 -47 77.5t-93 26.5q-80 0 -124 -62q-38 -56 -38 -138q0 -78 41 -131q45 -57 121 -57q72 0 111.5 43t39.5 110h-151v53
h207v-248z" />
    <glyph glyph-name="H" unicode="H" horiz-adv-x="477" 
d="M425 0h-63v216h-248v-216h-63v471h63v-202h248v202h63v-471z" />
    <glyph glyph-name="I" unicode="I" horiz-adv-x="171" 
d="M117 0h-63v471h63v-471z" />
    <glyph glyph-name="J" unicode="J" horiz-adv-x="343" 
d="M291 117q0 -55 -30 -88q-36 -36 -109 -36q-66 0 -101.5 33.5t-35.5 99.5v29h62v-20q0 -45 16.5 -69t59.5 -24q42 0 58.5 21.5t16.5 63.5v344h63v-354z" />
    <glyph glyph-name="K" unicode="K" horiz-adv-x="440" 
d="M442 0h-79l-170 238l-79 -73v-165h-63v471h63v-235l239 235h81l-198 -190z" />
    <glyph glyph-name="L" unicode="L" horiz-adv-x="367" 
d="M364 0h-313v471h63v-418h250v-53z" />
    <glyph glyph-name="M" unicode="M" horiz-adv-x="575" 
d="M522 0h-59v392l-149 -392h-53l-147 392l-2 -392h-59v471h86l148 -396l149 396h86v-471z" />
    <glyph glyph-name="N" unicode="N" horiz-adv-x="477" 
d="M426 0h-68l-246 378l-2 -378h-59v471h66l249 -382l1 382h59v-471z" />
    <glyph glyph-name="O" unicode="O" horiz-adv-x="502" 
d="M477 236q0 -103 -56 -171q-62 -72 -170 -72q-107 0 -169 71q-57 69 -57 172t56 171q61 75 170 75q107 0 169 -75q57 -69 57 -171zM414 236q0 80 -38 133q-43 61 -125 61q-81 0 -124 -61q-39 -54 -39 -133q0 -80 38 -133q43 -61 125 -61q81 0 124 61q39 54 39 133z" />
    <glyph glyph-name="P" unicode="P" horiz-adv-x="428" 
d="M403 332q0 -66 -37.5 -102.5t-107.5 -36.5h-144v-193h-63v471h207q70 0 107.5 -36.5t37.5 -102.5zM340 332q0 43 -24.5 64.5t-78.5 21.5h-123v-172h123q103 0 103 86z" />
    <glyph glyph-name="Q" unicode="Q" horiz-adv-x="502" 
d="M477 236q0 -55 -18.5 -104.5t-53.5 -83.5l62 -48l-31 -37l-72 54q-50 -24 -113 -24q-107 0 -169 71q-57 69 -57 172t56 171q61 75 170 75q107 0 169 -75q57 -69 57 -171zM414 236q0 80 -38 133q-43 61 -125 61q-81 0 -124 -61q-39 -54 -39 -133q0 -80 38 -133
q43 -61 125 -61q40 0 65 13l-52 41l33 39l63 -51q27 27 40.5 67t13.5 85z" />
    <glyph glyph-name="R" unicode="R" horiz-adv-x="452" 
d="M433 0h-70q-11 11 -13 56q-1 23 -1.5 37.5t-2.5 22.5q-8 53 -27.5 69t-51.5 16h-153v-201h-63v471h222q67 0 105 -33t38 -90q0 -45 -19.5 -76.5t-61.5 -43.5q37 -8 54 -36q12 -21 17 -83q6 -64 7 -65q5 -23 20 -44zM354 338q0 38 -19 57q-23 23 -65 23h-156v-164h131
q52 0 77 16q32 20 32 68z" />
    <glyph glyph-name="S" unicode="S" horiz-adv-x="428" 
d="M403 129q0 -69 -59 -107q-53 -29 -125 -29q-84 0 -137 35q-58 43 -58 127h60q0 -56 42 -86q37 -27 95 -27q49 0 81 17q39 21 39 68q0 51 -70 73q-8 2 -29.5 7t-56.5 13q-69 16 -99 35q-47 30 -47 90q0 66 53 104q46 33 118 33q75 0 122 -35q51 -39 51 -114h-59
q-5 51 -35 74t-82 23q-43 0 -72 -17q-33 -21 -33 -64q0 -46 69 -65q5 -2 25.5 -6.5t55.5 -12.5q72 -16 104 -39q47 -35 47 -97z" />
    <glyph glyph-name="T" unicode="T" horiz-adv-x="379" 
d="M378 418h-157v-418h-63v418h-157v53h377v-53z" />
    <glyph glyph-name="U" unicode="U" horiz-adv-x="477" 
d="M428 170q0 -91 -47.5 -134t-138.5 -43q-94 0 -143.5 41.5t-49.5 135.5v301h63v-301q0 -63 33.5 -95.5t96.5 -32.5q123 0 123 128v301h63v-301z" />
    <glyph glyph-name="V" unicode="V" horiz-adv-x="403" 
d="M405 471l-168 -471h-71l-166 471h67l135 -408l137 408h66z" />
    <glyph glyph-name="W" unicode="W" horiz-adv-x="611" 
d="M603 471l-126 -471h-65l-108 396l-110 -396h-65l-121 471h64l92 -392l107 392h68l105 -392l97 392h62z" />
    <glyph glyph-name="X" unicode="X" horiz-adv-x="403" 
d="M404 0h-77l-126 195l-131 -195h-70l164 242l-155 229h75l117 -184l123 184h70l-156 -229z" />
    <glyph glyph-name="Y" unicode="Y" horiz-adv-x="428" 
d="M426 471l-180 -278v-193h-63v193l-182 278h75l141 -224l138 224h71z" />
    <glyph glyph-name="Z" unicode="Z" horiz-adv-x="403" 
d="M389 0h-374v53l293 365h-271v53h344v-53l-292 -365h300v-53z" />
    <glyph glyph-name="bracketleft" unicode="[" horiz-adv-x="171" 
d="M171 -127h-123v609h123v-44h-71v-520h71v-45z" />
    <glyph glyph-name="backslash" unicode="\" horiz-adv-x="220" 
d="M232 -7h-49l-191 489h44z" />
    <glyph glyph-name="bracketright" unicode="]" horiz-adv-x="171" 
d="M123 -127h-123v45h71v520h-71v44h123v-609z" />
    <glyph glyph-name="asciicircum" unicode="^" horiz-adv-x="396" 
d="M363 174h-46l-120 238l-117 -238h-47l144 286h42z" />
    <glyph glyph-name="underscore" unicode="_" horiz-adv-x="330" 
d="M330 -78h-330v33h330v-33z" />
    <glyph glyph-name="grave" unicode="`" horiz-adv-x="147" 
d="M114 388h-43l-82 94h68z" />
    <glyph glyph-name="a" unicode="a" horiz-adv-x="354" 
d="M345 1q-17 -5 -41 -5q-47 0 -47 49q-46 -49 -120 -49q-52 0 -80 18q-33 25 -33 74q0 51 35 77q19 16 80 28q20 4 40.5 7t40.5 7q34 9 34 36q0 33 -24 47q-16 10 -52 10q-40 0 -62.5 -14.5t-22.5 -50.5h-56q0 58 44 88q41 26 100 26q56 0 88 -17q41 -23 41 -77v-175
q0 -23 2.5 -30.5t14.5 -7.5q10 0 18 3v-44zM253 119v57q-13 -10 -43 -14.5t-60 -9.5q-30 -4 -48.5 -17.5t-18.5 -42.5q0 -26 18.5 -38t47.5 -12q50 0 80 27q24 22 24 50z" />
    <glyph glyph-name="b" unicode="b" horiz-adv-x="391" 
d="M368 170q0 -76 -39 -125q-42 -49 -117 -49q-34 0 -58 7q-35 14 -52 43l-2 -46h-56v471h56v-176q14 27 43.5 40.5t67.5 13.5q73 0 117 -53q40 -49 40 -126zM308 174q0 53 -25 87q-29 39 -80 39q-53 0 -81 -40q-24 -35 -24 -89q0 -55 26.5 -92t81.5 -37q52 0 79 41
q23 35 23 91z" />
    <glyph glyph-name="c" unicode="c" horiz-adv-x="354" 
d="M334 125q-10 -63 -48.5 -96t-102.5 -33q-75 0 -117 46t-42 124q0 40 10.5 73.5t31 58t50.5 38t69 13.5q60 0 100.5 -29.5t46.5 -87.5h-58q-14 68 -85 68q-57 0 -81.5 -37t-24.5 -97q0 -50 23 -85q27 -39 77 -39q39 0 63.5 21.5t30.5 61.5h57z" />
    <glyph glyph-name="d" unicode="d" horiz-adv-x="391" 
d="M347 0h-56v46q-15 -27 -44 -38.5t-66 -11.5q-75 0 -116 48.5t-41 127.5q0 74 38 124q42 53 118 53q31 0 61.5 -12.5t48.5 -40.5l1 175h56v-471zM293 170q0 55 -24 90q-28 40 -84 40q-52 0 -79 -41q-23 -35 -23 -91q0 -53 25 -87q28 -39 81 -39q52 0 80 40q24 34 24 88z
" />
    <glyph glyph-name="e" unicode="e" horiz-adv-x="354" 
d="M339 154h-256q0 -48 26 -80t80 -32q74 0 89 66h55q-11 -57 -48.5 -84.5t-97.5 -27.5q-79 0 -121 47t-42 129q0 77 45 127t115 50q82 0 123 -66q32 -53 32 -129zM279 203q0 42 -28 69.5t-70 27.5q-43 0 -70.5 -28.5t-27.5 -68.5h196z" />
    <glyph glyph-name="f" unicode="f" horiz-adv-x="195" 
d="M196 422q-7 3 -19 4t-13 1q-22 0 -32.5 -8.5t-10.5 -29.5v-48h66v-49h-66v-292h-56v292h-57v49h57v51q0 85 95 85q19 0 36 -6v-49z" />
    <glyph glyph-name="g" unicode="g" horiz-adv-x="379" 
d="M337 29q0 -164 -159 -164q-57 0 -94 22q-47 27 -47 79h56q0 -28 27.5 -42t60.5 -14q54 0 78.5 33t24.5 93v22q-15 -31 -44 -44.5t-64 -13.5q-73 0 -112.5 46.5t-39.5 122.5q0 71 34 120q42 60 123 60q72 0 102 -57h1v49h53v-312zM281 178q0 51 -21 83q-26 39 -76 39
q-51 0 -76 -35t-25 -89q0 -53 20 -88q25 -42 77 -42q51 0 78 42q23 38 23 90z" />
    <glyph glyph-name="h" unicode="h" horiz-adv-x="367" 
d="M325 0h-56v231q0 31 -19 50t-51 19q-51 0 -76 -29t-25 -78v-193h-56v471h56v-180q14 29 45 43.5t64 14.5q65 0 93 -34q25 -28 25 -91v-224z" />
    <glyph glyph-name="i" unicode="i" horiz-adv-x="147" 
d="M102 403h-56v68h56v-68zM102 0h-56v341h56v-341z" />
    <glyph glyph-name="j" unicode="j" horiz-adv-x="147" 
d="M102 403h-56v68h56v-68zM102 -40q0 -45 -21.5 -66t-60.5 -21l-25 3v48l19 -1q18 0 25 10t7 37v371h56v-381z" />
    <glyph glyph-name="k" unicode="k" horiz-adv-x="343" 
d="M343 0h-72l-117 178l-52 -49v-129h-56v471h56v-279l155 149h76l-136 -124z" />
    <glyph glyph-name="l" unicode="l" horiz-adv-x="147" 
d="M102 0h-56v471h56v-471z" />
    <glyph glyph-name="m" unicode="m" horiz-adv-x="563" 
d="M521 0h-56v224q0 37 -12 54q-15 22 -54 22q-40 0 -64.5 -23.5t-24.5 -63.5v-213h-57v224q0 37 -12 54q-15 22 -52 22q-45 0 -70 -34q-21 -27 -21 -53v-213h-56v341h53v-50q40 58 112 58q34 0 58.5 -13.5t34.5 -44.5q17 26 46.5 42t60.5 16q54 0 84 -23.5t30 -75.5v-250z
" />
    <glyph glyph-name="n" unicode="n" horiz-adv-x="367" 
d="M325 0h-56v231q0 31 -19 50t-51 19q-51 0 -76 -29t-25 -78v-193h-56v341h53v-54q38 62 112 62q65 0 93 -34q25 -28 25 -91v-224z" />
    <glyph glyph-name="o" unicode="o" horiz-adv-x="379" 
d="M355 170q0 -79 -43.5 -126.5t-122.5 -47.5q-78 0 -121.5 47.5t-43.5 126.5q0 39 11 72t32.5 56.5t52 37t69.5 13.5q81 0 123.5 -49t42.5 -130zM296 170q0 60 -30.5 95t-76.5 35q-45 0 -75.5 -35t-30.5 -95t30 -94t76 -34t76.5 33.5t30.5 94.5z" />
    <glyph glyph-name="p" unicode="p" horiz-adv-x="391" 
d="M368 170q0 -76 -39 -125q-42 -49 -117 -49q-34 0 -58 7q-35 14 -52 43l-2 -173h-56v468h56v-46q14 27 43.5 40.5t67.5 13.5q73 0 117 -53q40 -49 40 -126zM308 174q0 53 -25 87q-29 39 -80 39q-53 0 -81 -40q-24 -35 -24 -89q0 -55 26.5 -92t81.5 -37q52 0 79 41
q23 35 23 91z" />
    <glyph glyph-name="q" unicode="q" horiz-adv-x="391" 
d="M347 -127h-56v173q-15 -27 -44 -38.5t-66 -11.5q-75 0 -116 48.5t-41 127.5q0 74 38 124q42 53 118 53q31 0 61.5 -12.5t48.5 -40.5l1 45h56v-468zM293 170q0 55 -24 90q-28 40 -84 40q-52 0 -79 -41q-23 -35 -23 -91q0 -53 25 -87q28 -39 81 -39q52 0 80 40q24 34 24 88
z" />
    <glyph glyph-name="r" unicode="r" horiz-adv-x="220" 
d="M220 290q-66 0 -95 -34.5t-29 -103.5v-152h-56v341h53v-72q21 40 51.5 60t75.5 20v-59z" />
    <glyph glyph-name="s" unicode="s" horiz-adv-x="330" 
d="M310 100q0 -57 -46 -85q-37 -19 -99 -19q-64 0 -101 22q-44 30 -44 90h57q0 -36 28 -52q23 -14 63 -14q28 0 54 8q29 12 29 42q0 32 -51 49q-5 2 -20.5 5.5t-41.5 8.5q-43 12 -75 29q-35 24 -35 68q0 48 38 72q37 25 89 25q64 0 98 -22q42 -27 42 -85h-56q-3 30 -25.5 44
t-53.5 14q-30 0 -51.5 -10t-21.5 -34q0 -27 36 -40q2 -1 21.5 -6t54.5 -13q56 -14 76 -28q35 -24 35 -69z" />
    <glyph glyph-name="t" unicode="t" horiz-adv-x="208" 
d="M188 0h-43q-46 0 -62 13q-19 16 -19 62v217h-58v49h58v103h56v-103h68v-49h-68v-212q0 -20 7.5 -25.5t34.5 -5.5h26v-49z" />
    <glyph glyph-name="u" unicode="u" horiz-adv-x="367" 
d="M325 0h-53v54q-37 -58 -112 -58q-65 0 -93 31q-25 28 -25 90v224h56v-231q0 -30 19 -49t51 -19q49 0 75 29t26 77v193h56v-341z" />
    <glyph glyph-name="v" unicode="v" horiz-adv-x="330" 
d="M321 341l-125 -341h-60l-127 341h63l96 -284l94 284h59z" />
    <glyph glyph-name="w" unicode="w" horiz-adv-x="500" 
d="M489 341l-109 -341h-59l-70 271l-70 -271h-60l-110 341h62l77 -279l70 279h62l71 -279l78 279h58z" />
    <glyph glyph-name="x" unicode="x" horiz-adv-x="342" 
d="M336 0h-72l-95 141l-95 -141h-68l128 180l-119 161h72l82 -119l85 119h67l-117 -157z" />
    <glyph glyph-name="y" unicode="y" horiz-adv-x="330" 
d="M325 341l-149 -383q-20 -51 -41 -71t-58 -20q-20 0 -39 6v52q11 -4 18.5 -6t14.5 -2q17 0 27.5 7.5t18.5 23.5l24 54l-136 339h64l99 -279l97 279h60z" />
    <glyph glyph-name="z" unicode="z" horiz-adv-x="317" 
d="M302 0h-287v43l205 249h-192v49h265v-38l-209 -254h218v-49z" />
    <glyph glyph-name="braceleft" unicode="{" horiz-adv-x="220" 
d="M204 -127h-46q-27 0 -48 22q-24 25 -24 65v116q0 34 -16.5 55.5t-37.5 21.5v45q21 0 37.5 22t16.5 56v120q0 40 22 63t50 23h46v-39h-33q-21 0 -27 -21q-2 -14 -3.5 -23t-1.5 -13v-121q0 -35 -13 -54q-17 -27 -44 -34q20 -4 34 -21q23 -26 23 -70v-116q0 -25 7 -41
t25 -16h33v-40z" />
    <glyph glyph-name="bar" unicode="|" horiz-adv-x="147" 
d="M96 -7h-45v489h45v-489z" />
    <glyph glyph-name="braceright" unicode="}" horiz-adv-x="220" 
d="M188 153q-22 0 -38.5 -21.5t-16.5 -55.5v-116q0 -39 -22 -63t-49 -24h-46v40h33q20 0 28 26q4 9 4 31v116q0 35 13 54q17 28 44 35q-20 4 -34 21q-23 26 -23 69v120q0 25 -7 41.5t-25 16.5h-33v39h46q27 0 49 -23t22 -63v-120q0 -34 16.5 -56t38.5 -22v-45z" />
    <glyph glyph-name="asciitilde" unicode="~" horiz-adv-x="396" 
d="M350 178q-24 -35 -42 -46t-40 -11q-23 -2 -49 13t-52 25q-23 9 -42 9q-24 0 -41 -23q-6 -8 -15 -27l-23 33q13 26 29 39q22 18 53 18q18 0 44 -9q8 -2 29 -12q7 -3 16 -7.5t20 -9.5q19 -10 32 -10q18 0 33 16q5 5 11 13.5t14 21.5z" />
    <glyph glyph-name="currency" unicode="&#xa4;" horiz-adv-x="410" 
d="M206 356q24 0 43.5 -9t34 -24t22.5 -35.5t8 -42.5q0 -49 -31 -80q-32 -33 -77 -33q-48 0 -79 33q-31 34 -31 80q0 43 32 78q31 33 78 33zM4 80l37 -37l71 72q40 -30 94 -30q26 0 51.5 9t40.5 21l73 -72l35 37l-71 71q29 38 29 94q0 54 -29 92l71 73l-35 35l-73 -71
q-16 13 -40.5 21t-51.5 8q-56 0 -94 -29l-71 71l-37 -35l72 -73q-30 -36 -30 -92q0 -54 30 -94z" />
    <glyph glyph-name="copyright" unicode="&#xa9;" horiz-adv-x="528" 
d="M510 236q0 -104 -71 -175q-70 -67 -175 -67t-175 67q-71 71 -71 175q0 103 71 174t175 71t175 -71t71 -174zM471 236q0 87 -59 149q-58 61 -148 61q-88 0 -148 -61q-59 -62 -59 -149q0 -88 59 -150q58 -61 148 -61t148 61q59 62 59 150zM392 184q-7 -48 -40.5 -74
t-81.5 -26q-66 0 -104.5 42.5t-38.5 109.5t38 109t105 42q48 0 81.5 -26t40.5 -74h-34q-6 31 -28.5 50.5t-58.5 19.5q-51 0 -80 -33.5t-29 -87.5t27.5 -88t81.5 -34q35 0 58 19.5t29 50.5h34z" />
    <glyph glyph-name="guillemotleft" unicode="&#xab;" horiz-adv-x="306" 
d="M263 75l-101 79v59l101 79v-57l-66 -52l66 -51v-57zM133 75l-100 79v59l100 79v-57l-66 -52l66 -51v-57z" />
    <glyph glyph-name="logicalnot" unicode="&#xac;" horiz-adv-x="396" 
d="M358 64v131h-320v-40h279v-91h41z" />
    <glyph glyph-name="minus" unicode="&#xad;" horiz-adv-x="396" 
d="M358 160v30h-320v-30h320z" />
    <glyph glyph-name="registered" unicode="&#xae;" horiz-adv-x="528" 
d="M510 236q0 -104 -71 -175q-70 -67 -175 -67t-175 67q-71 71 -71 175q0 103 71 174t175 71t175 -71t71 -174zM471 236q0 87 -59 149q-58 61 -148 61q-88 0 -148 -61q-59 -62 -59 -149q0 -88 59 -150q58 -61 148 -61t148 61q59 62 59 150zM389 94h-41l-79 126h-59v-126h-35
v284h109q92 0 92 -79q0 -35 -19.5 -54.5t-51.5 -24.5zM341 299q0 27 -18.5 38t-48.5 11h-64v-99h46q46 0 59 7q26 11 26 43z" />
    <glyph glyph-name="degree" unicode="&#xb0;" horiz-adv-x="264" 
d="M130 447q21 0 39 -7.5t31.5 -21t21.5 -31.5t8 -39t-8 -39t-21.5 -31.5t-31.5 -21t-39 -7.5q-20 0 -37.5 7.5t-31 21t-21.5 31.5t-8 39q0 20 7.5 38t21 31.5t31 21.5t38.5 8zM130 419q-30 0 -50.5 -20.5t-20.5 -50.5q0 -29 21 -50.5t50 -21.5q30 0 51 21q22 22 22 51
t-21.5 50t-51.5 21z" />
    <glyph glyph-name="paragraph" unicode="&#xb6;" horiz-adv-x="355" 
d="M307 543v-663h-30v663h-71v-663h-27v394q-82 0 -128 30q-51 36 -51 115q0 75 46 112q44 32 121 32h190v-20h-50z" />
    <glyph glyph-name="periodcentered" unicode="&#xb7;" horiz-adv-x="165" 
d="M83 254q15 0 25 -10.5t10 -24.5q0 -15 -10.5 -25.5t-24.5 -10.5q-16 0 -26 10t-10 26q0 15 10 25t26 10z" />
    <glyph glyph-name="periodcentered" unicode="&#x2219;" horiz-adv-x="165" 
d="M83 254q15 0 25 -10.5t10 -24.5q0 -15 -10.5 -25.5t-24.5 -10.5q-16 0 -26 10t-10 26q0 15 10 25t26 10z" />
    <glyph glyph-name="guillemotright" unicode="&#xbb;" horiz-adv-x="306" 
d="M273 154l-101 -79v57l66 51l-66 52v57l101 -79v-59zM143 154l-100 -79v57l66 51l-66 52v57l100 -79v-59z" />
    <glyph glyph-name="multiply" unicode="&#xd7;" horiz-adv-x="396" 
d="M350 48l-32 -32l-119 120l-120 -120l-32 32l120 120l-119 118l31 32l120 -119l118 119l32 -32l-119 -118z" />
    <glyph glyph-name="divide" unicode="&#xf7;" horiz-adv-x="396" 
d="M240 303q0 -16 -12 -29t-29 -13t-30 12t-13 30t12 30t30 12q17 0 29.5 -12.5t12.5 -29.5zM364 145h-332v44h332v-44zM240 31q0 -16 -12 -27t-29 -11t-30 10t-13 28t12 30t30 12q17 0 29.5 -12.5t12.5 -29.5z" />
    <glyph glyph-name="0e00;" unicode="&#xe00;" horiz-adv-x="100" 
 />
    <glyph glyph-name="afii59681" unicode="&#xe01;" horiz-adv-x="410" 
d="M368 0h-58v266q0 42 -29.5 65t-75.5 23q-71 0 -105 -49v-305h-58v321q59 86 163 86q34 0 64 -9t52 -26.5t34.5 -42.5t12.5 -57v-272z" />
    <glyph glyph-name="afii59682;" unicode="&#xe02;" horiz-adv-x="373" 
d="M331 134q0 -63 -40.5 -100t-106.5 -37q-67 0 -113 42q-45 46 -45 118q0 48 24 90q20 35 59 65l-51 68l51 26l73 -98q-99 -60 -99 -151q0 -23 7.5 -43t21 -35t32 -24t40.5 -9q39 0 64 26t25 62v266h58v-266z" />
    <glyph glyph-name="afii59683;" unicode="&#xe03;" horiz-adv-x="372" 
d="M330 136q0 -64 -40.5 -101.5t-103.5 -37.5q-67 0 -111 41q-44 47 -44 117q0 48 22.5 82.5t67.5 61.5v34l-33 -24q-2 3 -4 5.5t-4 4.5q-23 26 -65 45l34 41q14 -7 25 -16t18 -17l36 28h48v-121q-20 -10 -36.5 -22t-27.5 -27q-26 -35 -26 -75q0 -48 27.5 -78.5t72.5 -30.5
q38 0 62 26t24 64v264h58v-264z" />
    <glyph glyph-name="afii59684;" unicode="&#xe04;" horiz-adv-x="410" 
d="M368 0h-58v270q0 36 -32 60t-73 24q-42 0 -73 -24q-32 -23 -32 -60v-41h120v-54h-120v-175h-58v270q0 59 48 98t115 39q64 0 114 -39q49 -39 49 -98v-270z" />
    <glyph glyph-name="afii59685;" unicode="&#xe05;" horiz-adv-x="430" 
d="M388 0h-57v276q0 27 -13.5 48.5t-35.5 26.5l-66 -69l-68 69q-22 -5 -35 -26.5t-13 -48.5v-47h131v-54h-131v-175h-58v276q0 27 9 51t25.5 41.5t39.5 28t52 10.5l47 -48l48 48q56 0 92 -40q33 -38 33 -91v-276z" />
    <glyph glyph-name="afii59686;" unicode="&#xe06;" horiz-adv-x="416" 
d="M374 128q0 -60 -34 -95.5t-94 -35.5q-40 0 -76.5 16.5t-59.5 45.5v-59h-58v232q0 25 40 53q20 14 20 29v18l-33 -28q-5 6 -10 10.5t-9 8.5q-13 11 -26 21.5t-27 20.5l40 40q6 -4 12 -9t13 -10q5 -4 8.5 -7.5l5.5 -5.5l35 27h49v-93q0 -18 -18 -31q-42 -35 -42 -52v-84
q0 -38 37 -69t82 -31q40 0 63.5 23.5t23.5 62.5v274h58v-272z" />
    <glyph glyph-name="afii59687;" unicode="&#xe07;" horiz-adv-x="384" 
d="M359 199q0 -97 -57.5 -148t-160.5 -51h-24h-9h-6l-102 400h60l88 -348q70 0 111.5 38.5t41.5 108.5q0 146 -179 146v56q237 0 237 -202z" />
    <glyph glyph-name="afii59688;" unicode="&#xe08;" horiz-adv-x="392" 
d="M367 208q0 -95 -65 -152q-65 -56 -174 -56l-48 197h-40v56h89l45 -199q58 0 96 44q39 45 39 110q0 66 -36 106t-99 40q-39 0 -71.5 -17t-59.5 -46l-43 37q76 79 179 79q85 0 136 -56q52 -55 52 -143z" />
    <glyph glyph-name="afii59689;" unicode="&#xe09;" horiz-adv-x="397" 
d="M372 0h-74v59q-23 -28 -58 -45t-74 -17q-58 0 -91 35t-33 96v54h-28v57h86v-113q0 -40 22 -63t61 -23q45 0 79 31q36 31 36 72v127q0 37 -30.5 60.5t-72.5 23.5q-38 0 -71 -20t-44 -55h-57q6 30 22.5 53.5t39.5 40t51.5 25.5t58.5 9q64 0 112 -39t48 -98v-236z" />
    <glyph glyph-name="afii59690;" unicode="&#xe0a;" horiz-adv-x="377" 
d="M351 157q0 -72 -47.5 -115.5t-135.5 -43.5q-44 0 -90 8q-15 4 -36 12v382h58v-343q9 -2 29.5 -5.5t38.5 -3.5q60 0 93 29t33 80q0 101 -146 133l124 115l59 -21l-85 -79q25 -11 44 -25t32 -31q29 -38 29 -92z" />
    <glyph glyph-name="afii59691;" unicode="&#xe0b;" horiz-adv-x="385" 
d="M359 157q0 -72 -46.5 -115.5t-134.5 -43.5q-20 0 -42.5 1.5t-45.5 6.5l-36 12v215q0 23 20 49q21 25 21 40v11l-26 -24q-4 7 -7.5 11.5t-6.5 7.5q-20 21 -54 36l34 41q26 -15 38 -33l31 28h48v-82q0 -15 -21 -43q-21 -29 -21 -50v-168q13 -4 29.5 -6.5t39.5 -2.5
q58 0 90.5 29t32.5 80q0 101 -144 133l124 115l59 -21l-86 -78q48 -21 76 -57.5t28 -91.5z" />
    <glyph glyph-name="afii59692;" unicode="&#xe0c;" horiz-adv-x="668" 
d="M626 128q0 -61 -34 -96t-91 -35q-83 0 -133 62v-59h-58v266q0 42 -29.5 65t-75.5 23q-71 0 -105 -49v-251h62v-54h-120v321q59 86 163 86q34 0 64 -9t52 -26.5t34.5 -42.5t12.5 -57v-132q0 -38 36 -69q37 -31 80 -31q39 0 61.5 22t22.5 64v274h58v-272z" />
    <glyph glyph-name="afii59693;" unicode="&#xe0d;" horiz-adv-x="668" 
d="M626 130q0 -62 -48 -99q-47 -35 -117 -35q-48 0 -86 13t-68 49l41 37q24 -27 52 -39.5t60 -12.5q40 0 69 17q34 21 39 62q-20 -14 -46 -24t-56 -10q-70 0 -113 34t-43 94v50q0 42 -29.5 65t-75.5 23q-71 0 -105 -49v-251h62v-54h-120v321q59 86 163 86q34 0 64 -9
t52 -26.5t34.5 -42.5t12.5 -57v-58q0 -36 28 -55t70 -19q45 0 73.5 22.5t28.5 61.5v176h58v-270z" />
    <glyph glyph-name="afii59694;" unicode="&#xe0e;" horiz-adv-x="415" 
d="M373 -144h-50l-80 60l-84 -60h-159v55h146l99 71l70 -53v337q0 42 -29.5 65t-75.5 23q-71 0 -105 -49v-305h-105v54h47v267q59 86 163 86q34 0 64 -9t52 -26.5t34.5 -42.5t12.5 -57v-416z" />
    <glyph glyph-name="afii59695;" unicode="&#xe0f;" horiz-adv-x="415" 
d="M373 -144h-52l-50 50l-53 -60l-53 60l-52 -50h-113v56h93l74 68l51 -58l53 58l44 -44v330q0 42 -29.5 65t-75.5 23q-71 0 -105 -49v-305h-105v54h47v267q59 86 163 86q34 0 64 -9t52 -26.5t34.5 -42.5t12.5 -57v-416z" />
    <glyph glyph-name="afii59696;" unicode="&#xe10;" horiz-adv-x="393" 
d="M368 206q0 -93 -65 -150q-65 -56 -174 -56l-49 201h-39v52h89l45 -200q58 0 96 44q39 45 39 109q0 31 -9.5 57.5t-27 46t-41.5 30t-54 10.5q-70 0 -131 -58l-46 36q78 79 179 79q49 0 87 -18l38 46l55 -26l-49 -53q57 -57 57 -150zM369 -138h-60l-51 49l-52 -59l-51 59
l-51 -49h-96v56h77l72 67l49 -57l52 57l53 -49v34l-19 30h77v-138z" />
    <glyph glyph-name="afii59697;" unicode="&#xe11;" horiz-adv-x="415" 
d="M373 0h-58v290q0 19 -9 35.5t-24 20.5l-179 -346h-52v232q0 25 40 53q20 14 20 29v18l-33 -28q-5 6 -10 10.5t-9 8.5q-13 11 -26 21.5t-27 20.5l40 40q6 -4 12 -9t13 -10q5 -4 8.5 -7.5l5.5 -5.5l35 27h49v-93q0 -18 -18 -31q-42 -35 -42 -52v-97l144 275
q57 0 88.5 -30.5t31.5 -82.5v-289z" />
    <glyph glyph-name="afii59698;" unicode="&#xe12;" horiz-adv-x="698" 
d="M656 128q0 -61 -32.5 -96t-90.5 -35q-81 0 -131 62v-59h-58v273q0 26 -12.5 47t-32.5 27l-66 -65l-70 64q-28 -16 -51 -56q-27 -47 -27 -97q0 -30 6 -55.5t17.5 -45t29.5 -30.5t42 -11q35 0 55 30l43 -35q-39 -47 -98 -47q-75 0 -114.5 50t-39.5 144q0 81 46 142
q46 63 108 72l52 -49l46 45q58 0 91 -36.5t33 -93.5v-133q0 -38 36 -69q34 -31 78 -31q82 0 82 86v274h58v-272z" />
    <glyph glyph-name="afii59699;" unicode="&#xe13;" horiz-adv-x="668" 
d="M626 0h-58v37q-18 -19 -49 -29.5t-64 -10.5q-69 0 -107 34.5t-38 98.5v136q0 42 -29.5 65t-75.5 23q-71 0 -105 -49v-251h62v-54h-120v321q59 86 163 86q34 0 64 -9t52 -26.5t34.5 -42.5t12.5 -57v-144q0 -37 24.5 -59.5t66.5 -22.5q39 0 74 26q35 27 35 64v264h58v-400z
" />
    <glyph glyph-name="afii59700;" unicode="&#xe14;" horiz-adv-x="415" 
d="M373 0h-58v302q-11 18 -29 31q-27 18 -63 18q-61 0 -101 -49q-39 -50 -39 -112q0 -29 6 -54.5t17.5 -44t29 -29.5t40.5 -11q31 0 55 28l42 -36q-19 -22 -35 -32q-26 -12 -62 -12q-73 0 -111.5 50t-38.5 141q0 89 55 153t137 64q62 0 103 -27q16 -11 29 -25.5t23 -33.5
v-321z" />
    <glyph glyph-name="afii59701;" unicode="&#xe15;" horiz-adv-x="433" 
d="M390 0h-57v274q0 24 -12.5 45.5t-31.5 27.5l-64 -66l-68 65q-28 -19 -48 -55q-26 -47 -26 -98q0 -61 20 -99q24 -43 71 -43q35 0 55 30l43 -35q-20 -26 -42.5 -36.5t-55.5 -10.5q-72 0 -110 51.5t-38 142.5q0 79 45 142t103 72l49 -50l46 46q57 0 89 -36t32 -93v-274z
" />
    <glyph glyph-name="afii59702;" unicode="&#xe16;" horiz-adv-x="410" 
d="M368 0h-58v266q0 42 -29.5 65t-75.5 23q-71 0 -105 -49v-251h62v-54h-120v321q59 86 163 86q34 0 64 -9t52 -26.5t34.5 -42.5t12.5 -57v-272z" />
    <glyph glyph-name="afii59703;" unicode="&#xe17;" horiz-adv-x="410" 
d="M368 0h-58v263q0 45 -23 69.5t-66 24.5q-49 0 -85 -36t-36 -76v-245h-58v400h58v-59q20 28 56 47t76 19q63 0 99.5 -37.5t36.5 -101.5v-268z" />
    <glyph glyph-name="afii59704;" unicode="&#xe18;" horiz-adv-x="376" 
d="M351 290h-60q-10 28 -44 45.5t-71 17.5q-34 0 -60.5 -14t-26.5 -33t35 -30q4 -1 22 -4.5t51 -8.5q63 -10 102 -37q48 -35 48 -99t-53 -100q-50 -29 -125 -29q-47 0 -108 11q-5 1 -11 3t-13 4v175l56 20v-153q16 -4 40 -7t36 -3q48 0 81 18q39 21 39 61q0 37 -30 57.5
t-75 25.5q-36 4 -63 10.5t-44 14.5q-48 22 -48 67q0 46 46 74q46 30 105 30q58 0 105.5 -29.5t65.5 -86.5z" />
    <glyph glyph-name="afii59705;" unicode="&#xe19;" horiz-adv-x="410" 
d="M368 0h-58v59q-20 -28 -56 -45t-76 -17q-63 0 -99.5 35.5t-36.5 99.5v268h58v-263q0 -45 23 -69.5t66 -24.5q49 0 85 36t36 76v245h58v-400z" />
    <glyph glyph-name="afii59706;" unicode="&#xe1a;" horiz-adv-x="410" 
d="M368 130q0 -59 -48 -98q-50 -35 -115 -35t-115 35q-48 39 -48 98v270h58v-270q0 -18 8.5 -33.5t23 -27t33.5 -17.5t40 -6t40 6t33.5 17.5t23 27t8.5 33.5v270h58v-270z" />
    <glyph glyph-name="afii59707;" unicode="&#xe1b;" horiz-adv-x="410" 
d="M368 130q0 -59 -48 -98q-50 -35 -115 -35t-115 35q-48 39 -48 98v270h58v-270q0 -18 8.5 -33.5t23 -27t33.5 -17.5t40 -6t40 6t33.5 17.5t23 27t8.5 33.5v390h58v-390z" />
    <glyph glyph-name="afii59708;" unicode="&#xe1c;" horiz-adv-x="515" 
d="M509 400l-107 -400h-49l-97 291l-94 -291h-48l-109 400h130v-54h-55l61 -232l92 286h47l94 -286l76 286h59z" />
    <glyph glyph-name="afii59709;" unicode="&#xe1d;" horiz-adv-x="515" 
d="M541 520l-138 -520h-49l-97 296l-95 -296h-48l-109 400h130v-54h-55l62 -230l92 284h48l93 -284l107 404h59z" />
    <glyph glyph-name="afii59710;" unicode="&#xe1e;" horiz-adv-x="515" 
d="M509 400l-107 -400h-49l-97 291l-94 -291h-48l-109 400h59l77 -286l92 286h47l94 -286l76 286h59z" />
    <glyph glyph-name="afii59711;" unicode="&#xe1f;" horiz-adv-x="515" 
d="M541 520l-139 -520h-49l-97 291l-94 -291h-48l-109 400h59l77 -286l92 286h47l94 -286l108 406h59z" />
    <glyph glyph-name="afii59712;" unicode="&#xe20;" horiz-adv-x="415" 
d="M373 0h-58v266q0 42 -29.5 65t-75.5 23q-71 0 -105 -49v-305h-105v54h47v267q59 86 163 86q34 0 64 -9t52 -26.5t34.5 -42.5t12.5 -57v-272z" />
    <glyph glyph-name="afii59713;" unicode="&#xe21;" horiz-adv-x="410" 
d="M368 132q0 -64 -36.5 -99.5t-99.5 -35.5q-40 0 -76 17t-56 45v-59h-58v400h58v-245q0 -40 36 -76t85 -36q42 0 65.5 24.5t23.5 69.5v263h58v-268z" />
    <glyph glyph-name="afii59714;" unicode="&#xe22;" horiz-adv-x="409" 
d="M367 61q-19 -24 -38 -33q-56 -30 -123 -30q-88 0 -134 35.5t-46 95.5q0 35 22 62.5t48 39.5q-23 6 -41.5 27.5t-18.5 49.5q0 21 9.5 38.5t26 30.5t38.5 20.5t48 7.5q34 0 61 -12v-57q-36 12 -60 12q-29 0 -46.5 -9.5t-17.5 -30.5q0 -22 22.5 -33t51.5 -11h50v-56h-41
q-36 0 -64 -22q-29 -23 -29 -56q0 -37 33.5 -60.5t87.5 -23.5q30 0 67 14q9 4 18 9.5t18 12.5v318h58v-339z" />
    <glyph glyph-name="afii59715;" unicode="&#xe23;" horiz-adv-x="382" 
d="M357 128q0 -62 -49 -98q-50 -33 -117 -33q-68 0 -115 32q-51 40 -51 112h56q0 -47 35 -73q30 -21 77 -21q22 0 41.5 5t34.5 15t23.5 24t8.5 32q0 32 -34 47q-13 5 -31 9.5t-43 6.5q-74 7 -109 24q-50 24 -50 74q0 52 45 87q46 36 109 36q66 0 110.5 -30.5t54.5 -84.5h-59
q-11 29 -39 45t-67 16q-19 0 -36.5 -5t-30.5 -14t-21 -20t-8 -23t9 -21.5t25 -16t36 -10t43 -3.5q63 0 103 -25q49 -30 49 -87z" />
    <glyph glyph-name="afii59716;" unicode="&#xe24;" horiz-adv-x="410" 
d="M368 -146h-58v412q0 42 -29.5 65t-75.5 23q-71 0 -105 -49v-251h62v-54h-120v321q59 86 163 86q34 0 64 -9t52 -26.5t34.5 -42.5t12.5 -57v-418z" />
    <glyph glyph-name="afii59717;" unicode="&#xe25;" horiz-adv-x="419" 
d="M377 0h-58v161q-15 28 -47 46t-74 18q-52 0 -84 -29t-32 -72q0 -30 19.5 -51.5t48.5 -21.5q14 0 27.5 3.5t30.5 14.5l34 -43q-18 -16 -39 -21.5t-53 -5.5q-54 0 -91 35q-35 38 -35 90q0 63 45 108q49 49 129 49q40 0 69.5 -11t51.5 -31v64q-9 21 -37.5 34.5t-62.5 13.5
q-40 0 -70.5 -16t-45.5 -45h-62q19 57 65 87t112 30q30 0 56.5 -7.5t47.5 -20t35 -29.5t20 -36v-314z" />
    <glyph glyph-name="afii59718;" unicode="&#xe26;" horiz-adv-x="415" 
d="M373 -146h-58v412q0 42 -29.5 65t-75.5 23q-71 0 -105 -49v-305h-105v54h47v267q59 86 163 86q34 0 64 -9t52 -26.5t34.5 -42.5t12.5 -57v-418z" />
    <glyph glyph-name="afii59719;" unicode="&#xe27;" horiz-adv-x="380" 
d="M354 200q0 -86 -44 -145q-46 -58 -127 -58q-52 0 -96 29q-47 36 -63 99h58q14 -35 41.5 -55.5t59.5 -20.5q54 0 86 47q28 40 28 104t-28 104q-32 47 -86 47q-32 0 -58.5 -19.5t-40.5 -56.5h-60q17 64 60.5 98t98.5 34q79 0 127 -62q44 -59 44 -145z" />
    <glyph glyph-name="afii59720;" unicode="&#xe28;" horiz-adv-x="410" 
d="M368 0h-58v270q0 36 -32 60t-73 24q-42 0 -73 -24q-32 -23 -32 -60v-41h120v-54h-120v-175h-58v270q0 59 48 98t115 39q31 0 71 -14l36 42l55 -26l-42 -46q20 -19 31.5 -42.5t11.5 -50.5v-270z" />
    <glyph glyph-name="afii59721;" unicode="&#xe29;" horiz-adv-x="417" 
d="M410 183h-38v-53q0 -59 -50 -98q-50 -35 -115 -35q-67 0 -117 35q-48 37 -48 98v270h58v-272q0 -37 30.5 -59.5t76.5 -22.5q43 0 74 22.5t31 59.5v55h-111v82l41 -26h70v161h60v-161h38v-56z" />
    <glyph glyph-name="afii59722;" unicode="&#xe2a;" horiz-adv-x="419" 
d="M385 409l-42 -47q25 -22 34 -51v-311h-58v161q-14 27 -47 45.5t-73 18.5q-54 0 -85 -29t-31 -72q0 -30 19.5 -51.5t48.5 -21.5q14 0 27.5 3.5t30.5 14.5l34 -43q-18 -16 -39 -21.5t-53 -5.5q-54 0 -91 35q-35 38 -35 90q0 63 45 108q49 49 129 49q76 0 120 -42v59
q-9 22 -37 37.5t-62 15.5q-40 0 -70.5 -16t-45.5 -45h-62q18 57 64.5 87t112.5 30q24 0 39.5 -3t34.5 -11l37 42z" />
    <glyph glyph-name="afii59723;" unicode="&#xe2b;" horiz-adv-x="415" 
d="M389 384l-107 -70q51 -15 73.5 -45.5t22.5 -81.5v-187h-58v185q0 40 -21.5 65t-66.5 30l-132 -91v-189h-58v400h58v-149l227 154z" />
    <glyph glyph-name="afii59724;" unicode="&#xe2c;" horiz-adv-x="515" 
d="M540 500l-21 -77q-8 -24 -27 -40q-14 -11 -35 -18q26 -17 26 -53q0 -15 -4 -27l-76 -285h-49l-97 296l-94 -296h-49l-109 400h60l76 -284l93 284h47l94 -284l47 175q3 9 3 17q0 18 -14 29t-33 11h-39v52h43q40 0 57.5 8.5t22.5 32.5l17 59h61z" />
    <glyph glyph-name="afii59725;" unicode="&#xe2d;" horiz-adv-x="447" 
d="M421 200q0 -91 -55 -149q-56 -54 -143 -54q-89 0 -144 54q-54 57 -54 149q0 13 0.5 21.5t1.5 13.5h155v-56h-98q7 -58 44.5 -94t94.5 -36q31 0 56.5 11t44 31.5t28.5 48t10 60.5q0 67 -37.5 109t-101.5 42q-86 0 -123 -76h-63q19 63 69 97.5t117 34.5q89 0 143 -58
q55 -55 55 -149z" />
    <glyph glyph-name="afii59726;" unicode="&#xe2e;" horiz-adv-x="447" 
d="M421 200q0 -91 -55 -149q-56 -54 -143 -54q-89 0 -144 54q-54 57 -54 149q0 13 0.5 21.5t1.5 13.5h155v-56h-98q7 -58 44.5 -94t94.5 -36q31 0 56.5 11t44 31.5t28.5 48t10 60.5q0 67 -37.5 109t-101.5 42q-84 0 -123 -76h-63q19 63 69 97.5t117 34.5q52 0 89 -19l38 46
l44 -31l-38 -44q65 -59 65 -159z" />
    <glyph glyph-name="afii59727;" unicode="&#xe2f;" horiz-adv-x="386" 
d="M344 0h-58v253q-13 -10 -26 -16.5t-26 -11.5q-29 -13 -81 -13q-64 0 -100.5 28t-36.5 70t34 68.5t86 26.5q17 0 32 -3t31 -8v-55q-36 12 -62 12t-45 -10.5t-19 -30.5q0 -21 24 -33.5t56 -12.5q54 0 91 25q22 15 42 39v72h58v-400z" />
    <glyph glyph-name="afii59729;" unicode="&#xe30;" horiz-adv-x="156" 
d="M146 284h-121v66h58v-28h63v-38zM146 50h-121v66h58v-28h63v-38z" />
    <glyph glyph-name="afii59728;" unicode="&#xe31;" 
d="M88 450h-271v90h58v-42h213v-48z" />
    <glyph glyph-name="afii59730;" unicode="&#xe32;" horiz-adv-x="288" 
d="M246 0h-57v247q0 46 -23 75t-66 29q-24 0 -45 -8t-39 -20v63q17 10 37.5 15.5t49.5 5.5q72 0 107.5 -40.5t35.5 -103.5v-263z" />
    <glyph glyph-name="afii59731;" unicode="&#xe33;" horiz-adv-x="288" 
d="M-11 502q0 -22 -16 -37t-41 -15q-23 0 -40 15t-17 37t16 37t41 15q23 0 40 -15t17 -37zM246 0h-57v247q0 46 -23 75t-66 29q-24 0 -45 -8t-39 -20v63q17 10 37.5 15.5t49.5 5.5q72 0 107.5 -40.5t35.5 -103.5v-263zM-43 502q0 9 -7.5 16t-17.5 7q-9 0 -17 -7t-8 -16
t7.5 -16t17.5 -7q9 0 17 7t8 16z" />
    <glyph glyph-name="afii59732;" unicode="&#xe34;" 
d="M-38 450h-310v48h310v-48z" />
    <glyph glyph-name="afii59733;" unicode="&#xe35;" 
d="M-38 450h-310v48h252v52h58v-100z" />
    <glyph glyph-name="afii59734;" unicode="&#xe36;" 
d="M-12 502q0 -22 -16 -37t-40 -15h-280v48h225v4q0 22 16 37t39 15q24 0 40 -15t16 -37zM-43 502q0 9 -7.5 16t-17.5 7q-8 0 -16 -7t-8 -16t7 -16t17 -7q9 0 17 7t8 16z" />
    <glyph glyph-name="afii59735;" unicode="&#xe37;" 
d="M-38 450h-310v48h179v52h43v-52h30v52h58v-100z" />
    <glyph glyph-name="afii59736;" unicode="&#xe38;" 
d="M-38 -151h-58v65h-40v50h98v-115z" />
    <glyph glyph-name="afii59737;" unicode="&#xe39;" 
d="M-38 -96q0 -27 -25 -43.5t-60 -16.5q-25 0 -45 7.5t-35 25.5v37h-29v50h85v-70q4 -2 7 -3q9 -3 17 -3q27 0 27 19v57h58v-60z" />
    <glyph glyph-name="afii59738;" unicode="&#xe3a;" 
d="M-27 -76q0 -17 -11.5 -28.5t-28.5 -11.5t-28.5 11.5t-11.5 28.5t11.5 28.5t28.5 11.5t28.5 -11.5t11.5 -28.5z" />
    <glyph glyph-name="afii59743;" unicode="&#xe3f;" horiz-adv-x="452" 
d="M422 135q0 -56 -36 -93q-41 -42 -107 -42h-40v-61h-36v61h-152v471h152v55h36v-55q43 0 66.5 -3t41.5 -14q26 -15 41 -39.5t15 -58.5q0 -37 -19 -64.5t-51 -41.5q43 -10 66 -40t23 -75zM340 344q0 44 -29 61q-22 13 -71 13l-1 -149q101 0 101 75zM203 269v149h-89v-149
h89zM360 137q0 45 -28.5 62t-74.5 17h-18v-163h32q42 0 65.5 23t23.5 61zM203 53v163h-89v-163h89z" />
    <glyph glyph-name="afii59744;" unicode="&#xe40;" horiz-adv-x="158" 
d="M108 0h-58v400h58v-400z" />
    <glyph glyph-name="afii59745;" unicode="&#xe41;" horiz-adv-x="266" 
d="M217 0h-59v400h59v-400zM108 0h-58v400h58v-400z" />
    <glyph glyph-name="afii59746;" unicode="&#xe42;" horiz-adv-x="178" 
d="M204 563h-135q-17 0 -17 -9q0 -6 33 -33t33 -73v-448h-58v441q0 31 -34 61q-30 30 -30 53q0 31 20 45.5t57 14.5h131v-52z" />
    <glyph glyph-name="afii59747;" unicode="&#xe43;" horiz-adv-x="178" 
d="M166 538q0 -23 -15 -41q-33 -41 -33 -60v-437h-58v447q0 29 24 52q25 22 25 37t-13 25t-33 10q-49 0 -49 -53h-53q0 48 28.5 77.5t73.5 29.5q22 0 41 -7t32.5 -18.5t21.5 -27.5t8 -34z" />
    <glyph glyph-name="afii59748;" unicode="&#xe44;" horiz-adv-x="178" 
d="M168 534q-21 -18 -35.5 -47.5t-14.5 -65.5v-421h-58v411q0 39 15 69q5 10 13.5 21t19.5 22l-16 18l-48 -42l-86 79l36 42l51 -51l55 46z" />
    <glyph glyph-name="afii59749;" unicode="&#xe45;" horiz-adv-x="296" 
d="M254 -146h-57v393q0 48 -24 76t-69 28q-24 0 -47.5 -8t-40.5 -20v63q16 9 39 15t52 6q72 0 111 -42q36 -39 36 -102v-409z" />
    <glyph glyph-name="afii59750;" unicode="&#xe46;" horiz-adv-x="391" 
d="M349 -146h-58v428q0 57 -36 68l-72 -59l-74 59q-19 -5 -27 -23.5t-8 -44.5v-14h79v-56h-137v70q0 60 28 91.5t88 31.5l50 -40l51 40q57 0 86.5 -32.5t29.5 -90.5v-428z" />
    <glyph glyph-name="afii59751;" unicode="&#xe47;" 
d="M-41 541h-179q-25 0 -39.5 -11.5t-14.5 -26.5l41 -3l53 28l51 -28h57v-50h-60l-48 29l-49 -29h-103v39q0 43 27.5 67.5t81.5 24.5h182v-40z" />
    <glyph glyph-name="afii59752;" unicode="&#xe48;" 
d="M-38 580h-58v80h58v-80z" />
    <glyph glyph-name="afii59753;" unicode="&#xe49;" 
d="M19 580h-159v35q0 19 -18 19h-8v36h36q42 0 42 -34v-11h107v-45z" />
    <glyph glyph-name="afii59754;" unicode="&#xe4a;" 
d="M82 580h-98v48q0 14 -10 14l-43 -29l-45 29q-13 0 -13 -15v-9h27v-38h-75v44q0 25 15.5 39.5t39.5 14.5h19l32 -22l32 22h16q21 0 35.5 -11.5t14.5 -36.5v-9h53v-41z" />
    <glyph glyph-name="afii59755;" unicode="&#xe4b;" 
d="M0 617h-43v-37h-48v37h-43v37h43v37h48v-37h43v-37z" />
    <glyph glyph-name="afii59756;" unicode="&#xe4c;" 
d="M-4 570h-27q-27 0 -27 -23v-9h-53v25q0 27 17 39.5t45 12.5h45v-45z" />
    <glyph glyph-name="afii59757;" unicode="&#xe4d;" 
d="M-11 502q0 -22 -16 -37t-41 -15q-23 0 -40 15t-17 37t16 37t41 15q23 0 40 -15t17 -37zM-43 502q0 9 -7.5 16t-17.5 7q-9 0 -17 -7t-8 -16t7.5 -16t17.5 -7q9 0 17 7t8 16z" />
    <glyph glyph-name="afii59758;" unicode="&#xe4e;" 
d="M39 702q-13 1 -22.5 1.5t-16.5 0.5q-45 0 -75 -10t-30 -31q0 -14 14.5 -17t44.5 -3v-46q-10 1 -17.5 1.5t-13.5 0.5q-39 0 -65.5 -11t-26.5 -29q0 -14 24 -14q15 0 28.5 4.5t28.5 11.5l24 -40q-17 -9 -39 -16t-44 -7q-3 1 -8 1h-5q-28 3 -45 18t-17 36q0 20 12 36.5
t32 26.5q17 11 40 12q-21 10 -21 36q0 20 17.5 40.5t44.5 30.5q26 11 57.5 13.5t66.5 2.5h12v-49z" />
    <glyph glyph-name="afii59759;" unicode="&#xe4f;" horiz-adv-x="480" 
d="M445 200q0 -85 -60 -145q-62 -56 -145 -56t-145 56q-60 60 -60 145t60 145t145 60t145 -60t60 -145zM415 200q0 72 -52 123q-51 52 -123 52t-124 -52q-51 -51 -51 -123t51 -124q52 -51 124 -51t123 51q52 52 52 124zM365 200q0 -52 -37 -89q-36 -36 -88 -36t-89 36
q-36 37 -36 89t36 88q37 37 89 37t88 -37q37 -36 37 -88z" />
    <glyph glyph-name="afii59760;" unicode="&#xe50;" horiz-adv-x="377" 
d="M354 150q0 -65 -49 -110q-50 -42 -117 -42t-117 41q-48 45 -48 111q0 63 48 110q46 46 117 46t117 -46q49 -45 49 -110zM294 150q0 21 -8.5 39t-22.5 31.5t-34 21.5t-42 8q-45 0 -75.5 -28.5t-30.5 -71.5q0 -21 8.5 -39.5t22.5 -32t33.5 -21t41.5 -7.5t42 7.5t34 21
t22.5 32t8.5 39.5z" />
    <glyph glyph-name="afii59761;" unicode="&#xe51;" horiz-adv-x="400" 
d="M378 152q0 -76 -66 -131q-60 -48 -141 -58l-28 47q73 8 124 47q52 39 52 95q0 46 -35 73.5t-87 27.5q-48 0 -82 -27q-34 -25 -34 -66q0 -29 17 -51t42 -22q-9 7 -15.5 20.5t-6.5 27.5q0 30 22.5 51.5t54.5 21.5t55 -21t23 -52q0 -21 -9.5 -39.5t-26.5 -32t-39.5 -21
t-49.5 -7.5q-28 0 -51 9.5t-39.5 26t-25.5 39.5t-9 50q0 64 51 105q53 41 122 41q77 0 129 -43q53 -42 53 -111zM228 135q0 30 -33 30q-14 0 -23.5 -8.5t-9.5 -21.5q0 -12 9.5 -21t23.5 -9t23.5 9t9.5 21z" />
    <glyph glyph-name="afii59762;" unicode="&#xe52;" horiz-adv-x="560" 
d="M523 0h-446q0 34 -3 63t-8 56.5t-13 55.5t-18 60q-15 45 -39 83.5t-62 73.5l46 36q34 -35 64.5 -81.5t45.5 -91.5t24.5 -95t15.5 -105h335v156q0 19 -13.5 31.5t-31.5 12.5q-31 0 -47 -27v-142h-58v144q-22 25 -54 25q-23 0 -40 -13t-19 -31l12 1q28 0 48.5 -19.5
t20.5 -46.5t-20 -46t-49 -19t-49.5 18.5t-20.5 46.5v57q0 23 9.5 42.5t25 34t37 22.5t45.5 8t45 -8t38 -21q32 29 76 29q43 0 73 -25.5t30 -68.5v-216zM240 146q0 10 -7.5 17.5t-18.5 7.5q-27 0 -27 -25t27 -25q10 0 18 7t8 18z" />
    <glyph glyph-name="afii59763;" unicode="&#xe53;" horiz-adv-x="473" 
d="M436 0h-58v212q0 20 -15.5 31.5t-34.5 11.5q-15 0 -29 -6.5t-23 -19.5v-229h-58v231q-21 24 -59 24q-24 0 -44 -14.5t-20 -36.5v-67l20 3q32 0 54.5 -21.5t22.5 -51.5q0 -31 -22.5 -49.5t-54.5 -18.5t-55 19t-23 49v137q0 44 37 75t85 31q29 0 50 -7.5t38 -21.5
q15 12 37 20.5t44 8.5q21 0 40.5 -7t34.5 -19t24 -29t9 -38v-217zM148 67q0 12 -9.5 21t-23.5 9t-23.5 -9t-9.5 -21q0 -30 33 -30q14 0 23.5 8.5t9.5 21.5z" />
    <glyph glyph-name="afii59764;" unicode="&#xe54;" horiz-adv-x="429" 
d="M427 31l-35 -39q-15 8 -38.5 13.5t-42.5 5.5q-6 0 -23.5 -3t-46.5 -8q-16 0 -30.5 -1t-27.5 -1q-67 0 -111 32q-49 40 -49 111q0 68 50 113q49 46 121 46h134q25 0 34 37q6 25 6 75h58q0 -72 -21 -115q-25 -52 -77 -52h-134q-24 0 -44.5 -7.5t-35.5 -21.5t-24 -33t-9 -42
q0 -22 8.5 -39.5t23 -29.5t33.5 -18.5t40 -6.5q16 0 34 3.5t26 4.5q-15 13 -24.5 32.5t-9.5 37.5q0 33 23 55t55 22q33 0 55.5 -21.5t22.5 -52.5q0 -39 -35 -62l14 -1q26 -4 44 -10.5t36 -23.5zM323 128q0 30 -33 30q-14 0 -23.5 -8.5t-9.5 -21.5q0 -12 9.5 -21t23.5 -9
t23.5 9t9.5 21z" />
    <glyph glyph-name="afii59765;" unicode="&#xe55;" horiz-adv-x="429" 
d="M427 31l-35 -39q-15 8 -38.5 13.5t-42.5 5.5q-6 0 -23.5 -3t-46.5 -8q-16 0 -30.5 -1t-27.5 -1q-67 0 -111 32q-49 40 -49 111q0 57 33.5 97.5t88.5 54.5q-7 10 -9 18t-2 17q0 31 24 53t58 22q33 0 57 -21t24 -54q0 -14 -8 -28h39q25 0 34 37q6 24 6 75h58
q0 -72 -21 -115q-25 -52 -77 -52h-134q-24 0 -44.5 -7.5t-35.5 -21.5t-24 -33t-9 -42q0 -22 8.5 -39.5t23 -29.5t33.5 -18.5t40 -6.5q16 0 34 3.5t26 4.5q-15 13 -24.5 32.5t-9.5 37.5q0 33 23 55t55 22q33 0 55.5 -21.5t22.5 -52.5q0 -39 -35 -62l14 -1q26 -4 44 -10.5
t36 -23.5zM248 328q0 11 -9 21t-23 10t-23.5 -9.5t-9.5 -21.5q0 -31 33 -31q32 0 32 31zM323 128q0 30 -33 30q-14 0 -23.5 -8.5t-9.5 -21.5q0 -12 9.5 -21t23.5 -9t23.5 9t9.5 21z" />
    <glyph glyph-name="afii59766;" unicode="&#xe56;" horiz-adv-x="404" 
d="M381 154q0 -71 -52 -116q-53 -41 -130 -41q-71 0 -117 33q-46 37 -46 86q0 32 23 53t56 21q32 0 54.5 -21.5t22.5 -51.5q0 -40 -36 -62q13 -7 43 -7q25 0 48 7.5t39.5 21.5t26.5 33.5t10 43.5q0 22 -9 40.5t-25 31.5t-37 20.5t-45 7.5q-30 0 -58.5 -11t-56.5 -37l-46 12
q-16 92 -86 160l40 34q20 -16 35.5 -33t27.5 -34q21 -31 31 -65q48 30 113 30q74 0 124 -44t50 -112zM148 117q0 31 -33 31t-33 -31q0 -12 9.5 -21.5t23.5 -9.5t23.5 9t9.5 22z" />
    <glyph glyph-name="afii59767;" unicode="&#xe57;" horiz-adv-x="583" 
d="M595 378q-21 -13 -35 -34.5t-14 -46.5v-195q0 -51 -45 -76.5t-123 -25.5v211q0 20 -15 32t-35 12q-34 0 -52 -27v-228h-58v230q-22 25 -59 25q-24 0 -44 -15t-20 -37v-64l20 2q32 0 54.5 -21.5t22.5 -51.5q0 -31 -22 -50t-55 -19q-32 0 -55 19t-23 50v135q0 45 37 76
t85 31q29 0 50 -7.5t38 -21.5q15 12 37 20.5t44 8.5q21 0 40.5 -7t34.5 -19t24 -29.5t9 -38.5v-164q17 0 34.5 12t17.5 35v202q0 37 20 69q7 10 17 20.5t23 21.5zM148 68q0 12 -9.5 21t-23.5 9t-23.5 -9t-9.5 -21q0 -30 33 -30q14 0 23.5 8.5t9.5 21.5z" />
    <glyph glyph-name="afii59768;" unicode="&#xe58;" horiz-adv-x="442" 
d="M423 403q-7 -52 -23.5 -94t-42.5 -77q-27 10 -57.5 15.5t-63.5 5.5q-69 0 -112 -33q-43 -31 -43 -78q0 -15 5.5 -29t13.5 -25.5t18.5 -20t19.5 -11.5l65 63l89 -74l25 15q-44 14 -44 57q0 28 21 48t50 20q28 0 49 -21t21 -49q0 -34 -37 -67q-29 -26 -94 -54l-79 60
l-60 -60q-52 9 -83 46q-38 44 -38 102q0 76 58 119q58 45 145 45q33 0 59.5 -3t47.5 -8q11 19 21 50.5t13 66.5zM373 117q0 11 -9 20t-20 9q-12 0 -21 -8t-9 -21q0 -8 6.5 -17t23.5 -9q12 0 20.5 7.5t8.5 18.5z" />
    <glyph glyph-name="afii59769;" unicode="&#xe59;" horiz-adv-x="472" 
d="M481 412q0 -8 1 -17.5t1 -14.5q0 -51 -15 -93t-38 -66l-30 9q-1 13 -11 19.5t-18 6.5q-14 0 -22.5 -10.5t-10.5 -25.5q26 -42 43 -97.5t25 -119.5l-59 -4q-7 54 -17.5 96.5t-26.5 74.5q-42 86 -119 86q-45 0 -74 -28.5t-29 -73.5q0 -31 13 -57t31 -38q-4 7 -4 24
q0 31 22.5 52.5t54.5 21.5q33 0 55.5 -21.5t22.5 -52.5q0 -20 -8.5 -36t-23.5 -27t-34 -16.5t-40 -5.5q-70 0 -109 43q-38 47 -38 114q0 70 46 113q47 44 115 44q65 0 111 -43q13 20 32 31.5t44 11.5t44 -13q10 24 10 71q0 19 -3 42h59zM230 83q0 31 -32 31t-32 -31
q0 -12 9.5 -21.5t22.5 -9.5q14 0 23 9t9 22z" />
    <glyph glyph-name="afii59770;" unicode="&#xe5a;" horiz-adv-x="494" 
d="M452 0h-58v400h58v-400zM344 0h-58v253q-13 -10 -26 -16.5t-26 -11.5q-32 -13 -81 -13q-64 0 -100.5 28t-36.5 70t34 68.5t86 26.5q17 0 32 -3t31 -8v-55q-36 12 -62 12t-45 -10.5t-19 -30.5q0 -21 24 -33.5t56 -12.5q54 0 91 25q22 15 42 39v72h58v-400z" />
    <glyph glyph-name="afii59771;" unicode="&#xe5b;" horiz-adv-x="680" 
d="M668 212q0 -6 -8.5 -11.5t-18.5 -6.5l-50 -5q-3 -10 -9.5 -19t-14.5 -9q-7 0 -15 11q-2 2 -5.5 8t-8.5 15q-5 -18 -13 -31.5t-16 -13.5q-7 0 -15.5 14t-19.5 37q-4 -14 -7.5 -24.5l-5.5 -16.5q-9 -20 -19 -20t-23 31q-4 8 -7 17t-7 17q-3 -14 -8 -27.5t-10.5 -24.5
t-11.5 -18t-11 -7q-17 0 -22 17q-2 9 -3 15.5t-2 11.5q-2 10 -9 30q-8 -33 -22 -62t-32 -48q-49 -55 -111 -55q-30 0 -54.5 12t-42 33.5t-27 52t-9.5 67.5q0 73 34 119q34 48 88 48q21 0 40 -9t33.5 -25.5t22.5 -38.5t8 -49q0 -42 -19 -67.5t-48 -25.5q-24 0 -42 19t-18 46
q0 26 18 46t41 20l10 -1q-17 39 -45 39q-31 0 -52.5 -35t-21.5 -90q0 -54 25 -85t64 -31q46 0 80 46t45 124q4 25 9.5 32.5t18.5 7.5q10 0 23.5 -21t24.5 -52l6 36q7 28 20 28q9 0 22 -16t23 -42q7 40 22 40q11 0 22.5 -14.5t23.5 -37.5q6 19 11.5 28.5t15.5 9.5q7 0 15 -9
t15 -22q7 16 23 14l54 -7q9 0 17.5 -5t8.5 -10zM212 219q0 30 -24 30q-9 0 -16.5 -8.5t-7.5 -21.5t7 -21t17 -8q24 0 24 29z" />
    <glyph glyph-name="endash" unicode="&#x2013;" horiz-adv-x="396" 
d="M364 145h-332v44h332v-44z" />
    <glyph glyph-name="emdash" unicode="&#x2014;" horiz-adv-x="792" 
d="M760 145h-728v44h728v-44z" />
    <glyph glyph-name="quoteleft" unicode="&#x2018;" horiz-adv-x="183" 
d="M129 301h-74v73q0 42 18 69.5t55 27.5v-33q-20 0 -29 -18.5t-9 -45.5h39v-73z" />
    <glyph glyph-name="quoteright" unicode="&#x2019;" horiz-adv-x="183" 
d="M128 398q0 -42 -18 -69.5t-55 -27.5v33q21 0 30 18t9 46h-39v73h73v-73z" />
    <glyph glyph-name="quotedblleft" unicode="&#x201c;" horiz-adv-x="281" 
d="M238 301h-74v73q0 42 18 69.5t55 27.5v-33q-20 0 -29 -18.5t-9 -45.5h39v-73zM117 301h-73v73q0 43 17.5 70t54.5 27v-33q-20 0 -29 -18.5t-9 -45.5h39v-73z" />
    <glyph glyph-name="quotedblright" unicode="&#x201d;" horiz-adv-x="281" 
d="M238 398q0 -42 -18 -69.5t-55 -27.5v33q20 0 29 18.5t9 45.5h-39v73h74v-73zM117 398q0 -42 -18 -69.5t-55 -27.5v33q20 0 29 18.5t9 45.5h-38v73h73v-73z" />
    <glyph glyph-name="bullet" unicode="&#x2022;" horiz-adv-x="370" 
d="M335 200q0 -62 -44 -106t-106 -44t-106 44t-44 106t44 106t106 44t106 -44t44 -106z" />
    <glyph glyph-name="ellipsis" unicode="&#x2026;" horiz-adv-x="660" 
d="M586 0h-73v73h73v-73zM366 0h-73v73h73v-73zM147 0h-74v73h74v-73z" />
    <glyph glyph-name="f700;" unicode="&#xf700;" horiz-adv-x="393" 
d="M368 206q0 -93 -65 -150q-65 -56 -174 -56l-49 201h-39v52h89l45 -200q58 0 96 44q39 45 39 109q0 31 -9.5 57.5t-27 46t-41.5 30t-54 10.5q-70 0 -131 -58l-46 36q78 79 179 79q49 0 87 -18l38 46l55 -26l-49 -53q57 -57 57 -150z" />
    <glyph glyph-name="f701;" unicode="&#xf701;" 
d="M-136 450h-290v48h290v-48z" />
    <glyph glyph-name="f702;" unicode="&#xf702;" 
d="M-136 450h-290v48h232v52h58v-100z" />
    <glyph glyph-name="f703;" unicode="&#xf703;" 
d="M-110 502q0 -22 -16 -37t-40 -15h-260v48h205v4q0 22 16 37t39 15q24 0 40 -15t16 -37zM-141 502q0 9 -7.5 16t-17.5 7q-8 0 -16 -7t-8 -16t7 -16t17 -7q9 0 17 7t8 16z" />
    <glyph glyph-name="f704;" unicode="&#xf704;" 
d="M-136 450h-290v48h159v52h43v-52h30v52h58v-100z" />
    <glyph glyph-name="f705;" unicode="&#xf705;" 
d="M-146 450h-58v110h58v-110z" />
    <glyph glyph-name="f706;" unicode="&#xf706;" 
d="M5 450h-203v39q0 21 -20 21h-9v40h40q47 0 47 -38v-12h145v-50z" />
    <glyph glyph-name="f707;" unicode="&#xf707;" 
d="M4 450h-189v56q0 21 -16 21l-51 -37l-52 37q-21 0 -21 -22v-14h34v-41h-87v52q0 30 18.5 46.5t46.5 16.5h22l39 -28l38 28h20q28 0 45.5 -14t17.5 -43v-14h135v-44z" />
    <glyph glyph-name="f708;" unicode="&#xf708;" 
d="M-126 492h-50v-42h-58v42h-50v46h50v42h58v-42h50v-46z" />
    <glyph glyph-name="f709;" unicode="&#xf709;" 
d="M-70 549h-29q-31 0 -31 -25v-11h-58v28q0 29 18.5 43.5t49.5 14.5h50v-50z" />
    <glyph glyph-name="f70a;" unicode="&#xf70a;" 
d="M-38 450h-58v110h58v-110z" />
    <glyph glyph-name="f70b;" unicode="&#xf70b;" 
d="M19 450h-177v39q0 21 -20 21h-9v40h40q47 0 47 -38v-12h119v-50z" />
    <glyph glyph-name="f70c;" unicode="&#xf70c;" 
d="M-10 450h-120v56q0 21 -16 21l-53 -37l-54 37q-21 0 -21 -22v-14h34v-41h-87v52q0 30 18.5 46.5t46.5 16.5h22l41 -28l40 28h20q28 0 45.5 -14t17.5 -43v-14h66v-44z" />
    <glyph glyph-name="f70d;" unicode="&#xf70d;" 
d="M-38 492h-50v-42h-58v42h-50v46h50v42h58v-42h50v-46z" />
    <glyph glyph-name="f70e;" unicode="&#xf70e;" 
d="M-18 486h-29q-31 0 -31 -25v-11h-58v28q0 29 18.5 43.5t49.5 14.5h50v-50z" />
    <glyph glyph-name="f70f;" unicode="&#xf70f;" horiz-adv-x="668" 
d="M626 126q0 -32 -12 -56t-33.5 -40.5t-50.5 -24.5t-62 -8q-67 0 -110 31q-48 37 -48 98v140q0 42 -29.5 65t-75.5 23q-71 0 -105 -49v-251h62v-54h-120v321q59 86 163 86q34 0 64 -9t52 -26.5t34.5 -42.5t12.5 -57v-143q0 -38 28.5 -60.5t71.5 -22.5t71.5 22.5t28.5 60.5
v271h58v-274z" />
    <glyph glyph-name="f710;" unicode="&#xf710;" 
d="M11 450h-291v90h58v-42h233v-48z" />
    <glyph glyph-name="f711;" unicode="&#xf711;" 
d="M-119 502q0 -22 -16 -37t-41 -15q-23 0 -40 15t-17 37t16 37t41 15q23 0 40 -15t17 -37zM-151 502q0 9 -7.5 16t-17.5 7q-9 0 -17 -7t-8 -16t7.5 -16t17.5 -7q9 0 17 7t8 16z" />
    <glyph glyph-name="f712;" unicode="&#xf712;" 
d="M-95 541h-179q-25 0 -39.5 -11.5t-14.5 -26.5l41 -3l53 28l51 -28h57v-50h-60l-48 29l-49 -29h-103v39q0 43 27.5 67.5t81.5 24.5h182v-40z" />
    <glyph glyph-name="f713;" unicode="&#xf713;" 
d="M-136 580h-58v80h58v-80z" />
    <glyph glyph-name="f714;" unicode="&#xf714;" 
d="M-74 580h-163v35q0 19 -18 19h-8v36h36q42 0 42 -34v-11h111v-45z" />
    <glyph glyph-name="f715;" unicode="&#xf715;" 
d="M-18 580h-102v48q0 14 -10 14l-43 -29l-45 29q-13 0 -13 -15v-9h27v-38h-75v44q0 25 15.5 39.5t39.5 14.5h19l32 -22l32 22h16q24 0 39 -11.5t15 -36.5v-9h53v-41z" />
    <glyph glyph-name="f716;" unicode="&#xf716;" 
d="M-98 617h-43v-37h-48v37h-43v37h43v37h48v-37h43v-37z" />
    <glyph glyph-name="f717;" unicode="&#xf717;" 
d="M-112 570h-27q-27 0 -27 -23v-9h-53v25q0 27 17 39.5t45 12.5h45v-45z" />
    <glyph glyph-name="f718;" unicode="&#xf718;" 
d="M-38 -291h-58v65h-40v50h98v-115z" />
    <glyph glyph-name="f719;" unicode="&#xf719;" 
d="M-38 -236q0 -27 -25 -43.5t-60 -16.5q-25 0 -45 7.5t-35 25.5v37h-29v50h85v-70q4 -2 7 -3q9 -3 17 -3q27 0 27 19v57h58v-60z" />
    <glyph glyph-name="f71a;" unicode="&#xf71a;" 
d="M-38 -216q0 -17 -11.5 -28.5t-28.5 -11.5t-28.5 11.5t-11.5 28.5t11.5 28.5t28.5 11.5t28.5 -11.5t11.5 -28.5z" />
    <glyph glyph-name="DEL" unicode="&#xf71b;" 
d="M0 0v590h-231v-590h231z" />
    <glyph glyph-name="f71c;" unicode="&#xf71c;" horiz-adv-x="250" 
 />
    <glyph glyph-name="f71d;" unicode="&#xf71d;" horiz-adv-x="250" 
d="M230 -91v91h-210v-91h17v35q17 11 36 11h98q26 0 42 -13v-33h17z" />
    <glyph glyph-name=".null" 
 />
  </font>
</defs>
</svg>
